<mxfile host="app.diagrams.net" modified="2024-06-18T16:25:29.842Z" agent="Mozilla/5.0 (Macintosh; Intel Mac OS X 10_15_7) AppleWebKit/537.36 (KHTML, like Gecko) Chrome/125.0.0.0 Safari/537.36" etag="9tWfW6--eDLe5P4TiYoH" version="24.5.5" type="github">
  <diagram name="Page-1" id="Yy5H18B4V0a0MgWdvh8-">
    <mxGraphModel dx="4913" dy="2217" grid="0" gridSize="10" guides="1" tooltips="1" connect="1" arrows="1" fold="1" page="0" pageScale="1" pageWidth="850" pageHeight="1100" math="0" shadow="0">
      <root>
        <mxCell id="0" />
        <mxCell id="1" parent="0" />
        <mxCell id="9y2d5Tocywy3vzXFuplA-249" value="" style="edgeStyle=none;curved=1;rounded=0;orthogonalLoop=1;jettySize=auto;html=1;fontSize=12;startSize=8;endSize=8;" edge="1" parent="1" source="9y2d5Tocywy3vzXFuplA-254" target="9y2d5Tocywy3vzXFuplA-256">
          <mxGeometry relative="1" as="geometry" />
        </mxCell>
        <mxCell id="9y2d5Tocywy3vzXFuplA-250" value="" style="edgeStyle=none;curved=1;rounded=0;orthogonalLoop=1;jettySize=auto;html=1;fontSize=12;startSize=8;endSize=8;" edge="1" parent="1" source="9y2d5Tocywy3vzXFuplA-254" target="9y2d5Tocywy3vzXFuplA-268">
          <mxGeometry relative="1" as="geometry" />
        </mxCell>
        <mxCell id="9y2d5Tocywy3vzXFuplA-251" value="" style="edgeStyle=none;curved=1;rounded=0;orthogonalLoop=1;jettySize=auto;html=1;fontSize=12;startSize=8;endSize=8;" edge="1" parent="1" source="9y2d5Tocywy3vzXFuplA-254" target="9y2d5Tocywy3vzXFuplA-274">
          <mxGeometry relative="1" as="geometry" />
        </mxCell>
        <mxCell id="9y2d5Tocywy3vzXFuplA-252" value="" style="edgeStyle=none;curved=1;rounded=0;orthogonalLoop=1;jettySize=auto;html=1;fontSize=12;startSize=8;endSize=8;" edge="1" parent="1" source="9y2d5Tocywy3vzXFuplA-254" target="9y2d5Tocywy3vzXFuplA-302">
          <mxGeometry relative="1" as="geometry" />
        </mxCell>
        <mxCell id="9y2d5Tocywy3vzXFuplA-253" value="" style="edgeStyle=none;curved=1;rounded=0;orthogonalLoop=1;jettySize=auto;html=1;fontSize=12;startSize=8;endSize=8;" edge="1" parent="1" source="9y2d5Tocywy3vzXFuplA-254" target="9y2d5Tocywy3vzXFuplA-304">
          <mxGeometry relative="1" as="geometry" />
        </mxCell>
        <mxCell id="9y2d5Tocywy3vzXFuplA-254" value="q0" style="ellipse;whiteSpace=wrap;html=1;aspect=fixed;" vertex="1" parent="1">
          <mxGeometry x="-130" y="1018" width="80" height="80" as="geometry" />
        </mxCell>
        <mxCell id="9y2d5Tocywy3vzXFuplA-255" value="" style="edgeStyle=none;curved=1;rounded=0;orthogonalLoop=1;jettySize=auto;html=1;fontSize=12;startSize=8;endSize=8;" edge="1" parent="1" source="9y2d5Tocywy3vzXFuplA-256" target="9y2d5Tocywy3vzXFuplA-258">
          <mxGeometry relative="1" as="geometry" />
        </mxCell>
        <mxCell id="9y2d5Tocywy3vzXFuplA-256" value="q1" style="ellipse;whiteSpace=wrap;html=1;aspect=fixed;" vertex="1" parent="1">
          <mxGeometry x="913.5" y="1453" width="80" height="80" as="geometry" />
        </mxCell>
        <mxCell id="9y2d5Tocywy3vzXFuplA-257" value="" style="edgeStyle=none;curved=1;rounded=0;orthogonalLoop=1;jettySize=auto;html=1;fontSize=12;startSize=8;endSize=8;" edge="1" parent="1" source="9y2d5Tocywy3vzXFuplA-258" target="9y2d5Tocywy3vzXFuplA-260">
          <mxGeometry relative="1" as="geometry" />
        </mxCell>
        <mxCell id="9y2d5Tocywy3vzXFuplA-258" value="q2" style="ellipse;whiteSpace=wrap;html=1;aspect=fixed;" vertex="1" parent="1">
          <mxGeometry x="1155" y="1453" width="80" height="80" as="geometry" />
        </mxCell>
        <mxCell id="9y2d5Tocywy3vzXFuplA-259" value="" style="edgeStyle=none;curved=1;rounded=0;orthogonalLoop=1;jettySize=auto;html=1;fontSize=12;startSize=8;endSize=8;" edge="1" parent="1" source="9y2d5Tocywy3vzXFuplA-260" target="9y2d5Tocywy3vzXFuplA-262">
          <mxGeometry relative="1" as="geometry" />
        </mxCell>
        <mxCell id="9y2d5Tocywy3vzXFuplA-260" value="q3" style="ellipse;whiteSpace=wrap;html=1;aspect=fixed;" vertex="1" parent="1">
          <mxGeometry x="1425" y="1380" width="80" height="80" as="geometry" />
        </mxCell>
        <mxCell id="9y2d5Tocywy3vzXFuplA-261" value="" style="edgeStyle=none;curved=1;rounded=0;orthogonalLoop=1;jettySize=auto;html=1;fontSize=12;startSize=8;endSize=8;entryX=0;entryY=0.5;entryDx=0;entryDy=0;" edge="1" parent="1" source="9y2d5Tocywy3vzXFuplA-262" target="9y2d5Tocywy3vzXFuplA-265">
          <mxGeometry relative="1" as="geometry" />
        </mxCell>
        <mxCell id="9y2d5Tocywy3vzXFuplA-262" value="q4" style="ellipse;whiteSpace=wrap;html=1;aspect=fixed;" vertex="1" parent="1">
          <mxGeometry x="1625" y="1380" width="80" height="80" as="geometry" />
        </mxCell>
        <mxCell id="9y2d5Tocywy3vzXFuplA-263" value="p" style="text;html=1;align=center;verticalAlign=middle;resizable=0;points=[];autosize=1;strokeColor=none;fillColor=none;fontSize=16;" vertex="1" parent="1">
          <mxGeometry x="730" y="1368" width="27" height="31" as="geometry" />
        </mxCell>
        <mxCell id="9y2d5Tocywy3vzXFuplA-264" style="edgeStyle=orthogonalEdgeStyle;rounded=0;orthogonalLoop=1;jettySize=auto;html=1;" edge="1" parent="1" source="9y2d5Tocywy3vzXFuplA-265" target="9y2d5Tocywy3vzXFuplA-396">
          <mxGeometry relative="1" as="geometry" />
        </mxCell>
        <mxCell id="9y2d5Tocywy3vzXFuplA-265" value="q44" style="ellipse;whiteSpace=wrap;html=1;aspect=fixed;" vertex="1" parent="1">
          <mxGeometry x="2180" y="1011" width="80" height="80" as="geometry" />
        </mxCell>
        <mxCell id="9y2d5Tocywy3vzXFuplA-266" value="n" style="text;html=1;align=center;verticalAlign=middle;resizable=0;points=[];autosize=1;strokeColor=none;fillColor=none;fontSize=16;" vertex="1" parent="1">
          <mxGeometry x="1683" y="1141" width="27" height="31" as="geometry" />
        </mxCell>
        <mxCell id="9y2d5Tocywy3vzXFuplA-267" value="" style="edgeStyle=none;curved=1;rounded=0;orthogonalLoop=1;jettySize=auto;html=1;fontSize=12;startSize=8;endSize=8;" edge="1" parent="1" source="9y2d5Tocywy3vzXFuplA-268" target="9y2d5Tocywy3vzXFuplA-270">
          <mxGeometry relative="1" as="geometry" />
        </mxCell>
        <mxCell id="9y2d5Tocywy3vzXFuplA-268" value="q15" style="ellipse;whiteSpace=wrap;html=1;" vertex="1" parent="1">
          <mxGeometry x="879.0000000000001" y="293" width="80" height="80" as="geometry" />
        </mxCell>
        <mxCell id="9y2d5Tocywy3vzXFuplA-269" value="" style="edgeStyle=none;curved=1;rounded=0;orthogonalLoop=1;jettySize=auto;html=1;fontSize=12;startSize=8;endSize=8;" edge="1" parent="1" source="9y2d5Tocywy3vzXFuplA-270" target="9y2d5Tocywy3vzXFuplA-272">
          <mxGeometry relative="1" as="geometry" />
        </mxCell>
        <mxCell id="9y2d5Tocywy3vzXFuplA-270" value="q20" style="ellipse;whiteSpace=wrap;html=1;" vertex="1" parent="1">
          <mxGeometry x="1143.41" y="293" width="80" height="80" as="geometry" />
        </mxCell>
        <mxCell id="9y2d5Tocywy3vzXFuplA-271" style="rounded=0;orthogonalLoop=1;jettySize=auto;html=1;entryX=0;entryY=0;entryDx=0;entryDy=0;" edge="1" parent="1" source="9y2d5Tocywy3vzXFuplA-272" target="9y2d5Tocywy3vzXFuplA-265">
          <mxGeometry relative="1" as="geometry" />
        </mxCell>
        <mxCell id="9y2d5Tocywy3vzXFuplA-272" value="q21" style="ellipse;whiteSpace=wrap;html=1;" vertex="1" parent="1">
          <mxGeometry x="1343.41" y="293" width="80" height="80" as="geometry" />
        </mxCell>
        <mxCell id="9y2d5Tocywy3vzXFuplA-273" value="" style="edgeStyle=none;curved=1;rounded=0;orthogonalLoop=1;jettySize=auto;html=1;fontSize=12;startSize=8;endSize=8;" edge="1" parent="1" source="9y2d5Tocywy3vzXFuplA-274" target="9y2d5Tocywy3vzXFuplA-277">
          <mxGeometry relative="1" as="geometry" />
        </mxCell>
        <mxCell id="9y2d5Tocywy3vzXFuplA-274" value="q22" style="ellipse;whiteSpace=wrap;html=1;" vertex="1" parent="1">
          <mxGeometry x="450" y="689" width="80" height="80" as="geometry" />
        </mxCell>
        <mxCell id="9y2d5Tocywy3vzXFuplA-275" value="" style="edgeStyle=none;curved=1;rounded=0;orthogonalLoop=1;jettySize=auto;html=1;fontSize=12;startSize=8;endSize=8;" edge="1" parent="1" source="9y2d5Tocywy3vzXFuplA-277" target="9y2d5Tocywy3vzXFuplA-279">
          <mxGeometry relative="1" as="geometry" />
        </mxCell>
        <mxCell id="9y2d5Tocywy3vzXFuplA-276" value="" style="edgeStyle=none;curved=1;rounded=0;orthogonalLoop=1;jettySize=auto;html=1;fontSize=12;startSize=8;endSize=8;" edge="1" parent="1" source="9y2d5Tocywy3vzXFuplA-277" target="9y2d5Tocywy3vzXFuplA-289">
          <mxGeometry relative="1" as="geometry" />
        </mxCell>
        <mxCell id="9y2d5Tocywy3vzXFuplA-277" value="q23" style="ellipse;whiteSpace=wrap;html=1;" vertex="1" parent="1">
          <mxGeometry x="650" y="689" width="80" height="80" as="geometry" />
        </mxCell>
        <mxCell id="9y2d5Tocywy3vzXFuplA-278" value="" style="edgeStyle=none;curved=1;rounded=0;orthogonalLoop=1;jettySize=auto;html=1;fontSize=12;startSize=8;endSize=8;" edge="1" parent="1" source="9y2d5Tocywy3vzXFuplA-279" target="9y2d5Tocywy3vzXFuplA-281">
          <mxGeometry relative="1" as="geometry" />
        </mxCell>
        <mxCell id="9y2d5Tocywy3vzXFuplA-279" value="q24" style="ellipse;whiteSpace=wrap;html=1;" vertex="1" parent="1">
          <mxGeometry x="850" y="689" width="80" height="80" as="geometry" />
        </mxCell>
        <mxCell id="9y2d5Tocywy3vzXFuplA-280" value="" style="edgeStyle=none;curved=1;rounded=0;orthogonalLoop=1;jettySize=auto;html=1;fontSize=12;startSize=8;endSize=8;" edge="1" parent="1" source="9y2d5Tocywy3vzXFuplA-281" target="9y2d5Tocywy3vzXFuplA-283">
          <mxGeometry relative="1" as="geometry" />
        </mxCell>
        <mxCell id="9y2d5Tocywy3vzXFuplA-281" value="q25" style="ellipse;whiteSpace=wrap;html=1;" vertex="1" parent="1">
          <mxGeometry x="1050" y="689" width="80" height="80" as="geometry" />
        </mxCell>
        <mxCell id="9y2d5Tocywy3vzXFuplA-282" value="" style="edgeStyle=none;curved=1;rounded=0;orthogonalLoop=1;jettySize=auto;html=1;fontSize=12;startSize=8;endSize=8;" edge="1" parent="1" source="9y2d5Tocywy3vzXFuplA-283" target="9y2d5Tocywy3vzXFuplA-285">
          <mxGeometry relative="1" as="geometry" />
        </mxCell>
        <mxCell id="9y2d5Tocywy3vzXFuplA-283" value="q26" style="ellipse;whiteSpace=wrap;html=1;" vertex="1" parent="1">
          <mxGeometry x="1250" y="689" width="80" height="80" as="geometry" />
        </mxCell>
        <mxCell id="9y2d5Tocywy3vzXFuplA-284" value="" style="edgeStyle=none;curved=1;rounded=0;orthogonalLoop=1;jettySize=auto;html=1;fontSize=12;startSize=8;endSize=8;" edge="1" parent="1" source="9y2d5Tocywy3vzXFuplA-285" target="9y2d5Tocywy3vzXFuplA-287">
          <mxGeometry relative="1" as="geometry" />
        </mxCell>
        <mxCell id="9y2d5Tocywy3vzXFuplA-285" value="q27" style="ellipse;whiteSpace=wrap;html=1;" vertex="1" parent="1">
          <mxGeometry x="1450" y="689" width="80" height="80" as="geometry" />
        </mxCell>
        <mxCell id="9y2d5Tocywy3vzXFuplA-286" style="edgeStyle=none;curved=1;rounded=0;orthogonalLoop=1;jettySize=auto;html=1;exitX=1;exitY=1;exitDx=0;exitDy=0;entryX=0.037;entryY=0.341;entryDx=0;entryDy=0;fontSize=12;startSize=8;endSize=8;entryPerimeter=0;" edge="1" parent="1" source="9y2d5Tocywy3vzXFuplA-287" target="9y2d5Tocywy3vzXFuplA-265">
          <mxGeometry relative="1" as="geometry" />
        </mxCell>
        <mxCell id="9y2d5Tocywy3vzXFuplA-287" value="q28" style="ellipse;whiteSpace=wrap;html=1;" vertex="1" parent="1">
          <mxGeometry x="1650" y="689" width="80" height="80" as="geometry" />
        </mxCell>
        <mxCell id="9y2d5Tocywy3vzXFuplA-288" value="" style="edgeStyle=none;curved=1;rounded=0;orthogonalLoop=1;jettySize=auto;html=1;fontSize=12;startSize=8;endSize=8;" edge="1" parent="1" source="9y2d5Tocywy3vzXFuplA-289" target="9y2d5Tocywy3vzXFuplA-291">
          <mxGeometry relative="1" as="geometry" />
        </mxCell>
        <mxCell id="9y2d5Tocywy3vzXFuplA-289" value="q29" style="ellipse;whiteSpace=wrap;html=1;" vertex="1" parent="1">
          <mxGeometry x="846" y="902" width="80" height="80" as="geometry" />
        </mxCell>
        <mxCell id="9y2d5Tocywy3vzXFuplA-290" value="" style="edgeStyle=none;curved=1;rounded=0;orthogonalLoop=1;jettySize=auto;html=1;fontSize=12;startSize=8;endSize=8;" edge="1" parent="1" source="9y2d5Tocywy3vzXFuplA-291" target="9y2d5Tocywy3vzXFuplA-293">
          <mxGeometry relative="1" as="geometry" />
        </mxCell>
        <mxCell id="9y2d5Tocywy3vzXFuplA-291" value="q30" style="ellipse;whiteSpace=wrap;html=1;" vertex="1" parent="1">
          <mxGeometry x="1046" y="902" width="80" height="80" as="geometry" />
        </mxCell>
        <mxCell id="9y2d5Tocywy3vzXFuplA-292" value="" style="edgeStyle=none;curved=1;rounded=0;orthogonalLoop=1;jettySize=auto;html=1;fontSize=12;startSize=8;endSize=8;" edge="1" parent="1" source="9y2d5Tocywy3vzXFuplA-293" target="9y2d5Tocywy3vzXFuplA-295">
          <mxGeometry relative="1" as="geometry" />
        </mxCell>
        <mxCell id="9y2d5Tocywy3vzXFuplA-293" value="q31" style="ellipse;whiteSpace=wrap;html=1;" vertex="1" parent="1">
          <mxGeometry x="1246" y="902" width="80" height="80" as="geometry" />
        </mxCell>
        <mxCell id="9y2d5Tocywy3vzXFuplA-294" style="edgeStyle=none;curved=1;rounded=0;orthogonalLoop=1;jettySize=auto;html=1;exitX=1;exitY=0.5;exitDx=0;exitDy=0;fontSize=12;startSize=8;endSize=8;entryX=0;entryY=0.5;entryDx=0;entryDy=0;" edge="1" parent="1" source="9y2d5Tocywy3vzXFuplA-295" target="9y2d5Tocywy3vzXFuplA-265">
          <mxGeometry relative="1" as="geometry">
            <mxPoint x="2170" y="1050" as="targetPoint" />
          </mxGeometry>
        </mxCell>
        <mxCell id="9y2d5Tocywy3vzXFuplA-295" value="q32" style="ellipse;whiteSpace=wrap;html=1;" vertex="1" parent="1">
          <mxGeometry x="1446" y="902" width="80" height="80" as="geometry" />
        </mxCell>
        <mxCell id="9y2d5Tocywy3vzXFuplA-296" value="" style="edgeStyle=none;curved=1;rounded=0;orthogonalLoop=1;jettySize=auto;html=1;fontSize=12;startSize=8;endSize=8;" edge="1" parent="1" source="9y2d5Tocywy3vzXFuplA-297" target="9y2d5Tocywy3vzXFuplA-298">
          <mxGeometry relative="1" as="geometry" />
        </mxCell>
        <mxCell id="9y2d5Tocywy3vzXFuplA-297" value="q36" style="ellipse;whiteSpace=wrap;html=1;" vertex="1" parent="1">
          <mxGeometry x="1180" y="1041" width="80" height="80" as="geometry" />
        </mxCell>
        <mxCell id="9y2d5Tocywy3vzXFuplA-298" value="q37" style="ellipse;whiteSpace=wrap;html=1;" vertex="1" parent="1">
          <mxGeometry x="1440" y="1039.5" width="80" height="80" as="geometry" />
        </mxCell>
        <mxCell id="9y2d5Tocywy3vzXFuplA-299" style="edgeStyle=none;curved=1;rounded=0;orthogonalLoop=1;jettySize=auto;html=1;exitX=1;exitY=0.5;exitDx=0;exitDy=0;entryX=0;entryY=0.5;entryDx=0;entryDy=0;fontSize=12;startSize=8;endSize=8;" edge="1" parent="1" source="9y2d5Tocywy3vzXFuplA-298" target="9y2d5Tocywy3vzXFuplA-265">
          <mxGeometry relative="1" as="geometry" />
        </mxCell>
        <mxCell id="9y2d5Tocywy3vzXFuplA-300" value="&lt;font style=&quot;font-size: 16px;&quot;&gt;u&lt;/font&gt;" style="edgeLabel;html=1;align=center;verticalAlign=middle;resizable=0;points=[];" connectable="0" vertex="1" parent="9y2d5Tocywy3vzXFuplA-299">
          <mxGeometry x="-0.4528" y="2" relative="1" as="geometry">
            <mxPoint as="offset" />
          </mxGeometry>
        </mxCell>
        <mxCell id="9y2d5Tocywy3vzXFuplA-301" value="" style="rounded=0;orthogonalLoop=1;jettySize=auto;html=1;exitX=0.5;exitY=1;exitDx=0;exitDy=0;" edge="1" parent="1" source="9y2d5Tocywy3vzXFuplA-302" target="9y2d5Tocywy3vzXFuplA-384">
          <mxGeometry relative="1" as="geometry" />
        </mxCell>
        <mxCell id="9y2d5Tocywy3vzXFuplA-302" value="q17" style="ellipse;whiteSpace=wrap;html=1;" vertex="1" parent="1">
          <mxGeometry x="450" y="1172" width="80" height="80" as="geometry" />
        </mxCell>
        <mxCell id="9y2d5Tocywy3vzXFuplA-303" value="" style="edgeStyle=orthogonalEdgeStyle;rounded=0;orthogonalLoop=1;jettySize=auto;html=1;" edge="1" parent="1" source="9y2d5Tocywy3vzXFuplA-304" target="9y2d5Tocywy3vzXFuplA-367">
          <mxGeometry relative="1" as="geometry" />
        </mxCell>
        <mxCell id="9y2d5Tocywy3vzXFuplA-304" value="q9" style="ellipse;whiteSpace=wrap;html=1;" vertex="1" parent="1">
          <mxGeometry x="815" y="1750" width="80" height="80" as="geometry" />
        </mxCell>
        <mxCell id="9y2d5Tocywy3vzXFuplA-305" value="b" style="text;html=1;align=center;verticalAlign=middle;resizable=0;points=[];autosize=1;strokeColor=none;fillColor=none;fontSize=16;" vertex="1" parent="1">
          <mxGeometry x="290" y="590" width="27" height="31" as="geometry" />
        </mxCell>
        <mxCell id="9y2d5Tocywy3vzXFuplA-306" value="i" style="text;html=1;align=center;verticalAlign=middle;resizable=0;points=[];autosize=1;strokeColor=none;fillColor=none;fontSize=16;" vertex="1" parent="1">
          <mxGeometry x="1059.91" y="302.5" width="22" height="31" as="geometry" />
        </mxCell>
        <mxCell id="9y2d5Tocywy3vzXFuplA-307" value="b" style="text;html=1;align=center;verticalAlign=middle;resizable=0;points=[];autosize=1;strokeColor=none;fillColor=none;fontSize=16;" vertex="1" parent="1">
          <mxGeometry x="1263.41" y="302.5" width="27" height="31" as="geometry" />
        </mxCell>
        <mxCell id="9y2d5Tocywy3vzXFuplA-308" value="i" style="text;html=1;align=center;verticalAlign=middle;resizable=0;points=[];autosize=1;strokeColor=none;fillColor=none;fontSize=16;" vertex="1" parent="1">
          <mxGeometry x="1720" y="580" width="22" height="31" as="geometry" />
        </mxCell>
        <mxCell id="9y2d5Tocywy3vzXFuplA-309" value="m" style="text;html=1;align=center;verticalAlign=middle;resizable=0;points=[];autosize=1;strokeColor=none;fillColor=none;fontSize=16;" vertex="1" parent="1">
          <mxGeometry x="337" y="769" width="31" height="31" as="geometry" />
        </mxCell>
        <mxCell id="9y2d5Tocywy3vzXFuplA-310" value="e" style="text;html=1;align=center;verticalAlign=middle;resizable=0;points=[];autosize=1;strokeColor=none;fillColor=none;fontSize=16;" vertex="1" parent="1">
          <mxGeometry x="572.5" y="699.5" width="27" height="31" as="geometry" />
        </mxCell>
        <mxCell id="9y2d5Tocywy3vzXFuplA-311" value="m" style="text;html=1;align=center;verticalAlign=middle;resizable=0;points=[];autosize=1;strokeColor=none;fillColor=none;fontSize=16;" vertex="1" parent="1">
          <mxGeometry x="760.5" y="696.5" width="31" height="31" as="geometry" />
        </mxCell>
        <mxCell id="9y2d5Tocywy3vzXFuplA-312" value="o" style="text;html=1;align=center;verticalAlign=middle;resizable=0;points=[];autosize=1;strokeColor=none;fillColor=none;fontSize=16;" vertex="1" parent="1">
          <mxGeometry x="966.5" y="697.5" width="27" height="31" as="geometry" />
        </mxCell>
        <mxCell id="9y2d5Tocywy3vzXFuplA-313" value="t" style="text;html=1;align=center;verticalAlign=middle;resizable=0;points=[];autosize=1;strokeColor=none;fillColor=none;fontSize=16;" vertex="1" parent="1">
          <mxGeometry x="1170.5" y="696.5" width="22" height="31" as="geometry" />
        </mxCell>
        <mxCell id="9y2d5Tocywy3vzXFuplA-314" value="o" style="text;html=1;align=center;verticalAlign=middle;resizable=0;points=[];autosize=1;strokeColor=none;fillColor=none;fontSize=16;" vertex="1" parent="1">
          <mxGeometry x="1360.5" y="696.5" width="27" height="31" as="geometry" />
        </mxCell>
        <mxCell id="9y2d5Tocywy3vzXFuplA-315" value="n" style="text;html=1;align=center;verticalAlign=middle;resizable=0;points=[];autosize=1;strokeColor=none;fillColor=none;fontSize=16;" vertex="1" parent="1">
          <mxGeometry x="1559.5" y="695.5" width="27" height="31" as="geometry" />
        </mxCell>
        <mxCell id="9y2d5Tocywy3vzXFuplA-316" value="g" style="text;html=1;align=center;verticalAlign=middle;resizable=0;points=[];autosize=1;strokeColor=none;fillColor=none;fontSize=16;" vertex="1" parent="1">
          <mxGeometry x="1816.5" y="833" width="27" height="31" as="geometry" />
        </mxCell>
        <mxCell id="9y2d5Tocywy3vzXFuplA-317" value="y" style="text;html=1;align=center;verticalAlign=middle;resizable=0;points=[];autosize=1;strokeColor=none;fillColor=none;fontSize=16;" vertex="1" parent="1">
          <mxGeometry x="955.5" y="914.5" width="30" height="30" as="geometry" />
        </mxCell>
        <mxCell id="9y2d5Tocywy3vzXFuplA-318" value="u" style="text;html=1;align=center;verticalAlign=middle;resizable=0;points=[];autosize=1;strokeColor=none;fillColor=none;fontSize=16;" vertex="1" parent="1">
          <mxGeometry x="1168.5" y="910" width="27" height="31" as="geometry" />
        </mxCell>
        <mxCell id="9y2d5Tocywy3vzXFuplA-319" value="c" style="text;html=1;align=center;verticalAlign=middle;resizable=0;points=[];autosize=1;strokeColor=none;fillColor=none;fontSize=16;" vertex="1" parent="1">
          <mxGeometry x="1360.5" y="909.5" width="26" height="31" as="geometry" />
        </mxCell>
        <mxCell id="9y2d5Tocywy3vzXFuplA-320" value="i" style="text;html=1;align=center;verticalAlign=middle;resizable=0;points=[];autosize=1;strokeColor=none;fillColor=none;fontSize=16;" vertex="1" parent="1">
          <mxGeometry x="1625" y="853" width="22" height="31" as="geometry" />
        </mxCell>
        <mxCell id="9y2d5Tocywy3vzXFuplA-321" value="p" style="text;html=1;align=center;verticalAlign=middle;resizable=0;points=[];autosize=1;strokeColor=none;fillColor=none;fontSize=16;" vertex="1" parent="1">
          <mxGeometry x="1350" y="1038" width="30" height="30" as="geometry" />
        </mxCell>
        <mxCell id="9y2d5Tocywy3vzXFuplA-322" value="n" style="text;html=1;align=center;verticalAlign=middle;resizable=0;points=[];autosize=1;strokeColor=none;fillColor=none;" vertex="1" parent="1">
          <mxGeometry x="795" y="821" width="30" height="30" as="geometry" />
        </mxCell>
        <mxCell id="9y2d5Tocywy3vzXFuplA-323" value="" style="edgeStyle=none;curved=1;rounded=0;orthogonalLoop=1;jettySize=auto;html=1;fontSize=12;startSize=8;endSize=8;exitX=1;exitY=1;exitDx=0;exitDy=0;entryX=0;entryY=0;entryDx=0;entryDy=0;" edge="1" parent="1" source="9y2d5Tocywy3vzXFuplA-291" target="9y2d5Tocywy3vzXFuplA-297">
          <mxGeometry relative="1" as="geometry">
            <mxPoint x="1126" y="1013" as="sourcePoint" />
            <mxPoint x="1180" y="1063" as="targetPoint" />
          </mxGeometry>
        </mxCell>
        <mxCell id="9y2d5Tocywy3vzXFuplA-324" value="a" style="text;html=1;align=center;verticalAlign=middle;resizable=0;points=[];autosize=1;strokeColor=none;fillColor=none;" vertex="1" parent="1">
          <mxGeometry x="1160" y="983" width="30" height="30" as="geometry" />
        </mxCell>
        <mxCell id="9y2d5Tocywy3vzXFuplA-325" value="q33" style="ellipse;whiteSpace=wrap;html=1;" vertex="1" parent="1">
          <mxGeometry x="983.5" y="580" width="80" height="80" as="geometry" />
        </mxCell>
        <mxCell id="9y2d5Tocywy3vzXFuplA-326" value="q34" style="ellipse;whiteSpace=wrap;html=1;" vertex="1" parent="1">
          <mxGeometry x="1241.5" y="580" width="80" height="80" as="geometry" />
        </mxCell>
        <mxCell id="9y2d5Tocywy3vzXFuplA-327" value="q35" style="ellipse;whiteSpace=wrap;html=1;" vertex="1" parent="1">
          <mxGeometry x="1550" y="580" width="80" height="80" as="geometry" />
        </mxCell>
        <mxCell id="9y2d5Tocywy3vzXFuplA-328" value="" style="edgeStyle=none;curved=1;rounded=0;orthogonalLoop=1;jettySize=auto;html=1;fontSize=12;startSize=8;endSize=8;exitX=1;exitY=0;exitDx=0;exitDy=0;entryX=0;entryY=1;entryDx=0;entryDy=0;" edge="1" parent="1" source="9y2d5Tocywy3vzXFuplA-279" target="9y2d5Tocywy3vzXFuplA-325">
          <mxGeometry relative="1" as="geometry">
            <mxPoint x="895" y="673" as="sourcePoint" />
            <mxPoint x="1015" y="673" as="targetPoint" />
          </mxGeometry>
        </mxCell>
        <mxCell id="9y2d5Tocywy3vzXFuplA-329" value="a" style="text;html=1;align=center;verticalAlign=middle;resizable=0;points=[];autosize=1;strokeColor=none;fillColor=none;" vertex="1" parent="1">
          <mxGeometry x="935" y="641" width="30" height="30" as="geometry" />
        </mxCell>
        <mxCell id="9y2d5Tocywy3vzXFuplA-330" value="" style="edgeStyle=none;curved=1;rounded=0;orthogonalLoop=1;jettySize=auto;html=1;fontSize=12;startSize=8;endSize=8;exitX=1;exitY=0.5;exitDx=0;exitDy=0;entryX=0;entryY=0.5;entryDx=0;entryDy=0;" edge="1" parent="1" source="9y2d5Tocywy3vzXFuplA-325" target="9y2d5Tocywy3vzXFuplA-326">
          <mxGeometry relative="1" as="geometry">
            <mxPoint x="1075.5" y="635.5" as="sourcePoint" />
            <mxPoint x="1195.5" y="635.5" as="targetPoint" />
          </mxGeometry>
        </mxCell>
        <mxCell id="9y2d5Tocywy3vzXFuplA-331" value="k" style="text;html=1;align=center;verticalAlign=middle;resizable=0;points=[];autosize=1;strokeColor=none;fillColor=none;" vertex="1" parent="1">
          <mxGeometry x="1125" y="581" width="30" height="30" as="geometry" />
        </mxCell>
        <mxCell id="9y2d5Tocywy3vzXFuplA-332" value="" style="edgeStyle=none;curved=1;rounded=0;orthogonalLoop=1;jettySize=auto;html=1;fontSize=12;startSize=8;endSize=8;exitX=1;exitY=0.5;exitDx=0;exitDy=0;entryX=0;entryY=0.5;entryDx=0;entryDy=0;" edge="1" parent="1" source="9y2d5Tocywy3vzXFuplA-326" target="9y2d5Tocywy3vzXFuplA-327">
          <mxGeometry relative="1" as="geometry">
            <mxPoint x="1387.5" y="619.17" as="sourcePoint" />
            <mxPoint x="1507.5" y="619.17" as="targetPoint" />
          </mxGeometry>
        </mxCell>
        <mxCell id="9y2d5Tocywy3vzXFuplA-333" value="a" style="text;html=1;align=center;verticalAlign=middle;resizable=0;points=[];autosize=1;strokeColor=none;fillColor=none;" vertex="1" parent="1">
          <mxGeometry x="1405" y="591" width="30" height="30" as="geometry" />
        </mxCell>
        <mxCell id="9y2d5Tocywy3vzXFuplA-334" value="" style="edgeStyle=none;curved=1;rounded=0;orthogonalLoop=1;jettySize=auto;html=1;fontSize=12;startSize=8;endSize=8;exitX=1;exitY=0.5;exitDx=0;exitDy=0;entryX=0;entryY=0;entryDx=0;entryDy=0;" edge="1" parent="1" source="9y2d5Tocywy3vzXFuplA-327" target="9y2d5Tocywy3vzXFuplA-265">
          <mxGeometry relative="1" as="geometry">
            <mxPoint x="1650" y="518" as="sourcePoint" />
            <mxPoint x="1770" y="518" as="targetPoint" />
          </mxGeometry>
        </mxCell>
        <mxCell id="9y2d5Tocywy3vzXFuplA-335" value="&lt;font style=&quot;font-size: 16px;&quot;&gt;n&lt;/font&gt;" style="text;html=1;align=center;verticalAlign=middle;resizable=0;points=[];autosize=1;strokeColor=none;fillColor=none;" vertex="1" parent="1">
          <mxGeometry x="1770" y="728.5" width="30" height="30" as="geometry" />
        </mxCell>
        <mxCell id="9y2d5Tocywy3vzXFuplA-336" value="" style="edgeStyle=none;curved=1;rounded=0;orthogonalLoop=1;jettySize=auto;html=1;fontSize=12;startSize=8;endSize=8;exitX=1;exitY=0.5;exitDx=0;exitDy=0;" edge="1" parent="1" source="9y2d5Tocywy3vzXFuplA-302" target="9y2d5Tocywy3vzXFuplA-337">
          <mxGeometry relative="1" as="geometry">
            <mxPoint x="550" y="1200" as="sourcePoint" />
            <mxPoint x="670" y="1200" as="targetPoint" />
            <Array as="points" />
          </mxGeometry>
        </mxCell>
        <mxCell id="9y2d5Tocywy3vzXFuplA-337" value="q38" style="ellipse;whiteSpace=wrap;html=1;" vertex="1" parent="1">
          <mxGeometry x="640" y="1172" width="80" height="80" as="geometry" />
        </mxCell>
        <mxCell id="9y2d5Tocywy3vzXFuplA-338" value="&lt;font style=&quot;font-size: 16px;&quot;&gt;i&lt;/font&gt;" style="text;html=1;align=center;verticalAlign=middle;resizable=0;points=[];autosize=1;strokeColor=none;fillColor=none;" vertex="1" parent="1">
          <mxGeometry x="565" y="1168" width="30" height="30" as="geometry" />
        </mxCell>
        <mxCell id="9y2d5Tocywy3vzXFuplA-339" value="q39" style="ellipse;whiteSpace=wrap;html=1;" vertex="1" parent="1">
          <mxGeometry x="799" y="1172" width="80" height="80" as="geometry" />
        </mxCell>
        <mxCell id="9y2d5Tocywy3vzXFuplA-340" value="" style="edgeStyle=none;curved=1;rounded=0;orthogonalLoop=1;jettySize=auto;html=1;fontSize=12;startSize=8;endSize=8;exitX=1;exitY=0.5;exitDx=0;exitDy=0;entryX=0;entryY=0.5;entryDx=0;entryDy=0;" edge="1" parent="1" source="9y2d5Tocywy3vzXFuplA-337" target="9y2d5Tocywy3vzXFuplA-339">
          <mxGeometry relative="1" as="geometry">
            <mxPoint x="728.5" y="1222" as="sourcePoint" />
            <mxPoint x="800" y="1220" as="targetPoint" />
            <Array as="points" />
          </mxGeometry>
        </mxCell>
        <mxCell id="9y2d5Tocywy3vzXFuplA-341" value="spasi" style="text;html=1;align=center;verticalAlign=middle;resizable=0;points=[];autosize=1;strokeColor=none;fillColor=none;" vertex="1" parent="1">
          <mxGeometry x="735" y="1178" width="50" height="30" as="geometry" />
        </mxCell>
        <mxCell id="9y2d5Tocywy3vzXFuplA-342" value="q40" style="ellipse;whiteSpace=wrap;html=1;" vertex="1" parent="1">
          <mxGeometry x="945" y="1172" width="80" height="80" as="geometry" />
        </mxCell>
        <mxCell id="9y2d5Tocywy3vzXFuplA-343" value="q41" style="ellipse;whiteSpace=wrap;html=1;" vertex="1" parent="1">
          <mxGeometry x="1088.5" y="1172" width="80" height="80" as="geometry" />
        </mxCell>
        <mxCell id="9y2d5Tocywy3vzXFuplA-344" value="q42" style="ellipse;whiteSpace=wrap;html=1;" vertex="1" parent="1">
          <mxGeometry x="1260" y="1172" width="80" height="80" as="geometry" />
        </mxCell>
        <mxCell id="9y2d5Tocywy3vzXFuplA-345" value="q43" style="ellipse;whiteSpace=wrap;html=1;" vertex="1" parent="1">
          <mxGeometry x="1420" y="1168" width="80" height="80" as="geometry" />
        </mxCell>
        <mxCell id="9y2d5Tocywy3vzXFuplA-346" value="" style="edgeStyle=none;curved=1;rounded=0;orthogonalLoop=1;jettySize=auto;html=1;fontSize=12;startSize=8;endSize=8;entryX=0;entryY=0.5;entryDx=0;entryDy=0;" edge="1" parent="1" target="9y2d5Tocywy3vzXFuplA-342">
          <mxGeometry relative="1" as="geometry">
            <mxPoint x="880" y="1212" as="sourcePoint" />
            <mxPoint x="809" y="1222" as="targetPoint" />
            <Array as="points" />
          </mxGeometry>
        </mxCell>
        <mxCell id="9y2d5Tocywy3vzXFuplA-347" value="" style="edgeStyle=none;curved=1;rounded=0;orthogonalLoop=1;jettySize=auto;html=1;fontSize=12;startSize=8;endSize=8;exitX=1;exitY=0.5;exitDx=0;exitDy=0;entryX=0;entryY=0.5;entryDx=0;entryDy=0;" edge="1" parent="1" source="9y2d5Tocywy3vzXFuplA-342" target="9y2d5Tocywy3vzXFuplA-343">
          <mxGeometry relative="1" as="geometry">
            <mxPoint x="1015" y="1240" as="sourcePoint" />
            <mxPoint x="1085" y="1208" as="targetPoint" />
            <Array as="points" />
          </mxGeometry>
        </mxCell>
        <mxCell id="9y2d5Tocywy3vzXFuplA-348" value="" style="edgeStyle=none;curved=1;rounded=0;orthogonalLoop=1;jettySize=auto;html=1;fontSize=12;startSize=8;endSize=8;exitX=1;exitY=0.5;exitDx=0;exitDy=0;entryX=0;entryY=0.5;entryDx=0;entryDy=0;" edge="1" parent="1" source="9y2d5Tocywy3vzXFuplA-343" target="9y2d5Tocywy3vzXFuplA-344">
          <mxGeometry relative="1" as="geometry">
            <mxPoint x="1171" y="1177.05" as="sourcePoint" />
            <mxPoint x="1250" y="1177.05" as="targetPoint" />
            <Array as="points" />
          </mxGeometry>
        </mxCell>
        <mxCell id="9y2d5Tocywy3vzXFuplA-349" value="" style="edgeStyle=none;curved=1;rounded=0;orthogonalLoop=1;jettySize=auto;html=1;fontSize=12;startSize=8;endSize=8;exitX=1;exitY=0.5;exitDx=0;exitDy=0;" edge="1" parent="1" source="9y2d5Tocywy3vzXFuplA-344">
          <mxGeometry relative="1" as="geometry">
            <mxPoint x="1350" y="1230" as="sourcePoint" />
            <mxPoint x="1419" y="1212" as="targetPoint" />
            <Array as="points" />
          </mxGeometry>
        </mxCell>
        <mxCell id="9y2d5Tocywy3vzXFuplA-350" value="&lt;font style=&quot;font-size: 16px;&quot;&gt;k&lt;/font&gt;" style="text;html=1;align=center;verticalAlign=middle;resizable=0;points=[];autosize=1;strokeColor=none;fillColor=none;" vertex="1" parent="1">
          <mxGeometry x="895" y="1178" width="30" height="30" as="geometry" />
        </mxCell>
        <mxCell id="9y2d5Tocywy3vzXFuplA-351" value="&lt;font style=&quot;font-size: 16px;&quot;&gt;e&lt;/font&gt;" style="text;html=1;align=center;verticalAlign=middle;resizable=0;points=[];autosize=1;strokeColor=none;fillColor=none;" vertex="1" parent="1">
          <mxGeometry x="1035" y="1178" width="30" height="30" as="geometry" />
        </mxCell>
        <mxCell id="9y2d5Tocywy3vzXFuplA-352" value="&lt;font style=&quot;font-size: 16px;&quot;&gt;b&lt;/font&gt;" style="text;html=1;align=center;verticalAlign=middle;resizable=0;points=[];autosize=1;strokeColor=none;fillColor=none;" vertex="1" parent="1">
          <mxGeometry x="1185" y="1178" width="30" height="30" as="geometry" />
        </mxCell>
        <mxCell id="9y2d5Tocywy3vzXFuplA-353" value="&lt;font style=&quot;font-size: 16px;&quot;&gt;u&lt;/font&gt;" style="text;html=1;align=center;verticalAlign=middle;resizable=0;points=[];autosize=1;strokeColor=none;fillColor=none;" vertex="1" parent="1">
          <mxGeometry x="1355" y="1178" width="30" height="30" as="geometry" />
        </mxCell>
        <mxCell id="9y2d5Tocywy3vzXFuplA-354" value="" style="edgeStyle=none;curved=1;rounded=0;orthogonalLoop=1;jettySize=auto;html=1;fontSize=12;startSize=8;endSize=8;exitX=0.984;exitY=0.346;exitDx=0;exitDy=0;exitPerimeter=0;entryX=0;entryY=0.5;entryDx=0;entryDy=0;" edge="1" parent="1" source="9y2d5Tocywy3vzXFuplA-345" target="9y2d5Tocywy3vzXFuplA-265">
          <mxGeometry relative="1" as="geometry">
            <mxPoint x="1520" y="1182.47" as="sourcePoint" />
            <mxPoint x="1599" y="1182.47" as="targetPoint" />
            <Array as="points" />
          </mxGeometry>
        </mxCell>
        <mxCell id="9y2d5Tocywy3vzXFuplA-355" value="&lt;font style=&quot;font-size: 16px;&quot;&gt;n&lt;/font&gt;" style="text;html=1;align=center;verticalAlign=middle;resizable=0;points=[];autosize=1;strokeColor=none;fillColor=none;" vertex="1" parent="1">
          <mxGeometry x="1675" y="1001" width="30" height="30" as="geometry" />
        </mxCell>
        <mxCell id="9y2d5Tocywy3vzXFuplA-356" value="" style="edgeStyle=none;curved=1;rounded=0;orthogonalLoop=1;jettySize=auto;html=1;fontSize=12;startSize=8;endSize=8;entryX=0.081;entryY=0.292;entryDx=0;entryDy=0;entryPerimeter=0;" edge="1" parent="1" source="9y2d5Tocywy3vzXFuplA-339" target="9y2d5Tocywy3vzXFuplA-359">
          <mxGeometry relative="1" as="geometry">
            <mxPoint x="810" y="1300" as="sourcePoint" />
            <mxPoint x="889" y="1300" as="targetPoint" />
            <Array as="points" />
          </mxGeometry>
        </mxCell>
        <mxCell id="9y2d5Tocywy3vzXFuplA-357" value="&lt;font style=&quot;font-size: 16px;&quot;&gt;h&lt;/font&gt;" style="edgeLabel;html=1;align=center;verticalAlign=middle;resizable=0;points=[];" connectable="0" vertex="1" parent="9y2d5Tocywy3vzXFuplA-356">
          <mxGeometry x="-0.0141" y="8" relative="1" as="geometry">
            <mxPoint y="-1" as="offset" />
          </mxGeometry>
        </mxCell>
        <mxCell id="9y2d5Tocywy3vzXFuplA-358" style="edgeStyle=orthogonalEdgeStyle;rounded=0;orthogonalLoop=1;jettySize=auto;html=1;entryX=0;entryY=0.5;entryDx=0;entryDy=0;" edge="1" parent="1" source="9y2d5Tocywy3vzXFuplA-359" target="9y2d5Tocywy3vzXFuplA-361">
          <mxGeometry relative="1" as="geometry" />
        </mxCell>
        <mxCell id="9y2d5Tocywy3vzXFuplA-359" value="q5" style="ellipse;whiteSpace=wrap;html=1;" vertex="1" parent="1">
          <mxGeometry x="905.5" y="1300" width="80" height="80" as="geometry" />
        </mxCell>
        <mxCell id="9y2d5Tocywy3vzXFuplA-360" style="edgeStyle=orthogonalEdgeStyle;rounded=0;orthogonalLoop=1;jettySize=auto;html=1;entryX=0;entryY=0.5;entryDx=0;entryDy=0;" edge="1" parent="1" source="9y2d5Tocywy3vzXFuplA-361" target="9y2d5Tocywy3vzXFuplA-363">
          <mxGeometry relative="1" as="geometry" />
        </mxCell>
        <mxCell id="9y2d5Tocywy3vzXFuplA-361" value="q6" style="ellipse;whiteSpace=wrap;html=1;" vertex="1" parent="1">
          <mxGeometry x="1025" y="1300" width="80" height="80" as="geometry" />
        </mxCell>
        <mxCell id="9y2d5Tocywy3vzXFuplA-362" style="edgeStyle=orthogonalEdgeStyle;rounded=0;orthogonalLoop=1;jettySize=auto;html=1;entryX=0;entryY=0.5;entryDx=0;entryDy=0;" edge="1" parent="1" source="9y2d5Tocywy3vzXFuplA-363" target="9y2d5Tocywy3vzXFuplA-365">
          <mxGeometry relative="1" as="geometry" />
        </mxCell>
        <mxCell id="9y2d5Tocywy3vzXFuplA-363" value="q7" style="ellipse;whiteSpace=wrap;html=1;" vertex="1" parent="1">
          <mxGeometry x="1150" y="1300" width="80" height="80" as="geometry" />
        </mxCell>
        <mxCell id="9y2d5Tocywy3vzXFuplA-364" style="rounded=0;orthogonalLoop=1;jettySize=auto;html=1;entryX=0;entryY=0;entryDx=0;entryDy=0;" edge="1" parent="1" source="9y2d5Tocywy3vzXFuplA-365" target="9y2d5Tocywy3vzXFuplA-260">
          <mxGeometry relative="1" as="geometry" />
        </mxCell>
        <mxCell id="9y2d5Tocywy3vzXFuplA-365" value="q8" style="ellipse;whiteSpace=wrap;html=1;" vertex="1" parent="1">
          <mxGeometry x="1270" y="1300" width="80" height="80" as="geometry" />
        </mxCell>
        <mxCell id="9y2d5Tocywy3vzXFuplA-366" value="" style="edgeStyle=orthogonalEdgeStyle;rounded=0;orthogonalLoop=1;jettySize=auto;html=1;" edge="1" parent="1" source="9y2d5Tocywy3vzXFuplA-367" target="9y2d5Tocywy3vzXFuplA-369">
          <mxGeometry relative="1" as="geometry" />
        </mxCell>
        <mxCell id="9y2d5Tocywy3vzXFuplA-367" value="q10" style="ellipse;whiteSpace=wrap;html=1;" vertex="1" parent="1">
          <mxGeometry x="975" y="1750" width="80" height="80" as="geometry" />
        </mxCell>
        <mxCell id="9y2d5Tocywy3vzXFuplA-368" value="" style="edgeStyle=orthogonalEdgeStyle;rounded=0;orthogonalLoop=1;jettySize=auto;html=1;" edge="1" parent="1" source="9y2d5Tocywy3vzXFuplA-369" target="9y2d5Tocywy3vzXFuplA-370">
          <mxGeometry relative="1" as="geometry" />
        </mxCell>
        <mxCell id="9y2d5Tocywy3vzXFuplA-369" value="q11" style="ellipse;whiteSpace=wrap;html=1;" vertex="1" parent="1">
          <mxGeometry x="1135" y="1750" width="80" height="80" as="geometry" />
        </mxCell>
        <mxCell id="9y2d5Tocywy3vzXFuplA-370" value="q12" style="ellipse;whiteSpace=wrap;html=1;" vertex="1" parent="1">
          <mxGeometry x="1295" y="1750" width="80" height="80" as="geometry" />
        </mxCell>
        <mxCell id="9y2d5Tocywy3vzXFuplA-371" style="rounded=0;orthogonalLoop=1;jettySize=auto;html=1;exitX=1;exitY=0;exitDx=0;exitDy=0;entryX=0;entryY=1;entryDx=0;entryDy=0;" edge="1" parent="1" source="9y2d5Tocywy3vzXFuplA-372" target="9y2d5Tocywy3vzXFuplA-265">
          <mxGeometry relative="1" as="geometry" />
        </mxCell>
        <mxCell id="9y2d5Tocywy3vzXFuplA-372" value="q13" style="ellipse;whiteSpace=wrap;html=1;" vertex="1" parent="1">
          <mxGeometry x="1455" y="1750" width="80" height="80" as="geometry" />
        </mxCell>
        <mxCell id="9y2d5Tocywy3vzXFuplA-373" value="" style="edgeStyle=orthogonalEdgeStyle;rounded=0;orthogonalLoop=1;jettySize=auto;html=1;" edge="1" parent="1" source="9y2d5Tocywy3vzXFuplA-370" target="9y2d5Tocywy3vzXFuplA-372">
          <mxGeometry relative="1" as="geometry" />
        </mxCell>
        <mxCell id="9y2d5Tocywy3vzXFuplA-374" value="&lt;font style=&quot;font-size: 16px;&quot;&gt;a&lt;/font&gt;" style="text;html=1;align=center;verticalAlign=middle;resizable=0;points=[];autosize=1;strokeColor=none;fillColor=none;" vertex="1" parent="1">
          <mxGeometry x="985" y="1308" width="30" height="30" as="geometry" />
        </mxCell>
        <mxCell id="9y2d5Tocywy3vzXFuplA-375" value="l" style="text;html=1;align=center;verticalAlign=middle;resizable=0;points=[];autosize=1;strokeColor=none;fillColor=none;" vertex="1" parent="1">
          <mxGeometry x="1105" y="1308" width="30" height="30" as="geometry" />
        </mxCell>
        <mxCell id="9y2d5Tocywy3vzXFuplA-376" value="a" style="text;html=1;align=center;verticalAlign=middle;resizable=0;points=[];autosize=1;strokeColor=none;fillColor=none;" vertex="1" parent="1">
          <mxGeometry x="1225" y="1308" width="30" height="30" as="geometry" />
        </mxCell>
        <mxCell id="9y2d5Tocywy3vzXFuplA-377" value="k" style="text;html=1;align=center;verticalAlign=middle;resizable=0;points=[];autosize=1;strokeColor=none;fillColor=none;" vertex="1" parent="1">
          <mxGeometry x="558.5" y="1510" width="30" height="30" as="geometry" />
        </mxCell>
        <mxCell id="9y2d5Tocywy3vzXFuplA-378" value="e" style="text;html=1;align=center;verticalAlign=middle;resizable=0;points=[];autosize=1;strokeColor=none;fillColor=none;" vertex="1" parent="1">
          <mxGeometry x="905" y="1758" width="30" height="30" as="geometry" />
        </mxCell>
        <mxCell id="9y2d5Tocywy3vzXFuplA-379" value="t" style="text;html=1;align=center;verticalAlign=middle;resizable=0;points=[];autosize=1;strokeColor=none;fillColor=none;" vertex="1" parent="1">
          <mxGeometry x="1085" y="1758" width="30" height="30" as="geometry" />
        </mxCell>
        <mxCell id="9y2d5Tocywy3vzXFuplA-380" value="e" style="text;html=1;align=center;verticalAlign=middle;resizable=0;points=[];autosize=1;strokeColor=none;fillColor=none;" vertex="1" parent="1">
          <mxGeometry x="1235" y="1758" width="30" height="30" as="geometry" />
        </mxCell>
        <mxCell id="9y2d5Tocywy3vzXFuplA-381" value="l" style="text;html=1;align=center;verticalAlign=middle;resizable=0;points=[];autosize=1;strokeColor=none;fillColor=none;" vertex="1" parent="1">
          <mxGeometry x="1395" y="1758" width="30" height="30" as="geometry" />
        </mxCell>
        <mxCell id="9y2d5Tocywy3vzXFuplA-382" value="&lt;font style=&quot;font-size: 16px;&quot;&gt;d&lt;/font&gt;" style="text;html=1;align=center;verticalAlign=middle;resizable=0;points=[];autosize=1;strokeColor=none;fillColor=none;" vertex="1" parent="1">
          <mxGeometry x="317" y="1130" width="30" height="30" as="geometry" />
        </mxCell>
        <mxCell id="9y2d5Tocywy3vzXFuplA-383" value="" style="edgeStyle=orthogonalEdgeStyle;rounded=0;orthogonalLoop=1;jettySize=auto;html=1;" edge="1" parent="1" source="9y2d5Tocywy3vzXFuplA-384" target="9y2d5Tocywy3vzXFuplA-386">
          <mxGeometry relative="1" as="geometry" />
        </mxCell>
        <mxCell id="9y2d5Tocywy3vzXFuplA-384" value="q18" style="ellipse;whiteSpace=wrap;html=1;" vertex="1" parent="1">
          <mxGeometry x="970" y="1648" width="80" height="80" as="geometry" />
        </mxCell>
        <mxCell id="9y2d5Tocywy3vzXFuplA-385" style="rounded=0;orthogonalLoop=1;jettySize=auto;html=1;entryX=-0.028;entryY=0.728;entryDx=0;entryDy=0;entryPerimeter=0;" edge="1" parent="1" source="9y2d5Tocywy3vzXFuplA-386" target="9y2d5Tocywy3vzXFuplA-265">
          <mxGeometry relative="1" as="geometry">
            <mxPoint x="2180" y="1160" as="targetPoint" />
          </mxGeometry>
        </mxCell>
        <mxCell id="9y2d5Tocywy3vzXFuplA-386" value="q19" style="ellipse;whiteSpace=wrap;html=1;" vertex="1" parent="1">
          <mxGeometry x="1405" y="1648" width="80" height="80" as="geometry" />
        </mxCell>
        <mxCell id="9y2d5Tocywy3vzXFuplA-387" value="q14" style="ellipse;whiteSpace=wrap;html=1;" vertex="1" parent="1">
          <mxGeometry x="780.0000000000001" y="150" width="80" height="80" as="geometry" />
        </mxCell>
        <mxCell id="9y2d5Tocywy3vzXFuplA-388" value="q16" style="ellipse;whiteSpace=wrap;html=1;" vertex="1" parent="1">
          <mxGeometry x="1307.5" y="150" width="80" height="80" as="geometry" />
        </mxCell>
        <mxCell id="9y2d5Tocywy3vzXFuplA-389" value="" style="edgeStyle=none;curved=1;rounded=0;orthogonalLoop=1;jettySize=auto;html=1;fontSize=12;startSize=8;endSize=8;exitX=0.67;exitY=0.017;exitDx=0;exitDy=0;exitPerimeter=0;entryX=0;entryY=1;entryDx=0;entryDy=0;" edge="1" parent="1" source="9y2d5Tocywy3vzXFuplA-254" target="9y2d5Tocywy3vzXFuplA-387">
          <mxGeometry relative="1" as="geometry">
            <mxPoint x="-405" y="1141.5" as="sourcePoint" />
            <mxPoint x="435" y="423.5" as="targetPoint" />
          </mxGeometry>
        </mxCell>
        <mxCell id="9y2d5Tocywy3vzXFuplA-390" value="" style="edgeStyle=none;curved=1;rounded=0;orthogonalLoop=1;jettySize=auto;html=1;fontSize=12;startSize=8;endSize=8;exitX=1;exitY=1;exitDx=0;exitDy=0;entryX=0;entryY=0;entryDx=0;entryDy=0;" edge="1" parent="1" source="9y2d5Tocywy3vzXFuplA-387" target="9y2d5Tocywy3vzXFuplA-268">
          <mxGeometry relative="1" as="geometry">
            <mxPoint x="868.4100000000001" y="240" as="sourcePoint" />
            <mxPoint x="988.4100000000001" y="240" as="targetPoint" />
          </mxGeometry>
        </mxCell>
        <mxCell id="9y2d5Tocywy3vzXFuplA-391" value="" style="edgeStyle=none;curved=1;rounded=0;orthogonalLoop=1;jettySize=auto;html=1;fontSize=12;startSize=8;endSize=8;exitX=1;exitY=0;exitDx=0;exitDy=0;entryX=0.019;entryY=0.687;entryDx=0;entryDy=0;entryPerimeter=0;" edge="1" parent="1" source="9y2d5Tocywy3vzXFuplA-268" target="9y2d5Tocywy3vzXFuplA-388">
          <mxGeometry relative="1" as="geometry">
            <mxPoint x="1043.41" y="353" as="sourcePoint" />
            <mxPoint x="1163.41" y="353" as="targetPoint" />
          </mxGeometry>
        </mxCell>
        <mxCell id="9y2d5Tocywy3vzXFuplA-392" value="a" style="text;html=1;align=center;verticalAlign=middle;resizable=0;points=[];autosize=1;strokeColor=none;fillColor=none;" vertex="1" parent="1">
          <mxGeometry x="888.4100000000001" y="248" width="30" height="30" as="geometry" />
        </mxCell>
        <mxCell id="9y2d5Tocywy3vzXFuplA-393" value="j" style="text;html=1;align=center;verticalAlign=middle;resizable=0;points=[];autosize=1;strokeColor=none;fillColor=none;" vertex="1" parent="1">
          <mxGeometry x="1048.41" y="258" width="30" height="30" as="geometry" />
        </mxCell>
        <mxCell id="9y2d5Tocywy3vzXFuplA-394" value="" style="rounded=0;orthogonalLoop=1;jettySize=auto;html=1;fontSize=12;startSize=8;endSize=8;exitX=1;exitY=1;exitDx=0;exitDy=0;entryX=0.5;entryY=0;entryDx=0;entryDy=0;" edge="1" parent="1" source="9y2d5Tocywy3vzXFuplA-388" target="9y2d5Tocywy3vzXFuplA-265">
          <mxGeometry relative="1" as="geometry">
            <mxPoint x="778" y="340" as="sourcePoint" />
            <mxPoint x="922" y="290" as="targetPoint" />
          </mxGeometry>
        </mxCell>
        <mxCell id="9y2d5Tocywy3vzXFuplA-395" value="&lt;font style=&quot;font-size: 16px;&quot;&gt;u&lt;/font&gt;" style="edgeLabel;html=1;align=center;verticalAlign=middle;resizable=0;points=[];" connectable="0" vertex="1" parent="9y2d5Tocywy3vzXFuplA-394">
          <mxGeometry x="-0.3022" y="3" relative="1" as="geometry">
            <mxPoint y="-14" as="offset" />
          </mxGeometry>
        </mxCell>
        <mxCell id="9y2d5Tocywy3vzXFuplA-396" value="q45" style="ellipse;whiteSpace=wrap;html=1;aspect=fixed;" vertex="1" parent="1">
          <mxGeometry x="2370" y="1011" width="80" height="80" as="geometry" />
        </mxCell>
        <mxCell id="9y2d5Tocywy3vzXFuplA-397" value="n" style="text;html=1;align=center;verticalAlign=middle;resizable=0;points=[];autosize=1;strokeColor=none;fillColor=none;" vertex="1" parent="1">
          <mxGeometry x="1875" y="1228" width="30" height="30" as="geometry" />
        </mxCell>
        <mxCell id="9y2d5Tocywy3vzXFuplA-398" value="Text" style="text;html=1;align=center;verticalAlign=middle;resizable=0;points=[];autosize=1;strokeColor=none;fillColor=none;" vertex="1" parent="1">
          <mxGeometry x="1365" y="1338" width="50" height="30" as="geometry" />
        </mxCell>
        <mxCell id="9y2d5Tocywy3vzXFuplA-399" value="&lt;font style=&quot;font-size: 16px;&quot;&gt;#&lt;/font&gt;" style="text;html=1;align=center;verticalAlign=middle;resizable=0;points=[];autosize=1;strokeColor=none;fillColor=none;" vertex="1" parent="1">
          <mxGeometry x="2310" y="1018" width="30" height="30" as="geometry" />
        </mxCell>
        <mxCell id="9y2d5Tocywy3vzXFuplA-400" value="a" style="text;html=1;align=center;verticalAlign=middle;resizable=0;points=[];autosize=1;strokeColor=none;fillColor=none;" vertex="1" parent="1">
          <mxGeometry x="1535" y="1388" width="30" height="30" as="geometry" />
        </mxCell>
        <mxCell id="9y2d5Tocywy3vzXFuplA-401" value="a" style="text;html=1;align=center;verticalAlign=middle;resizable=0;points=[];autosize=1;strokeColor=none;fillColor=none;" vertex="1" parent="1">
          <mxGeometry x="1045" y="1458" width="30" height="30" as="geometry" />
        </mxCell>
        <mxCell id="9y2d5Tocywy3vzXFuplA-402" value="m" style="text;html=1;align=center;verticalAlign=middle;resizable=0;points=[];autosize=1;strokeColor=none;fillColor=none;" vertex="1" parent="1">
          <mxGeometry x="1285" y="1428" width="30" height="30" as="geometry" />
        </mxCell>
        <mxCell id="9y2d5Tocywy3vzXFuplA-403" value="b" style="text;html=1;align=center;verticalAlign=middle;resizable=0;points=[];autosize=1;strokeColor=none;fillColor=none;" vertex="1" parent="1">
          <mxGeometry x="615" y="508" width="30" height="30" as="geometry" />
        </mxCell>
        <mxCell id="9y2d5Tocywy3vzXFuplA-404" value="a" style="text;html=1;align=center;verticalAlign=middle;resizable=0;points=[];autosize=1;strokeColor=none;fillColor=none;" vertex="1" parent="1">
          <mxGeometry x="855" y="1538" width="30" height="30" as="geometry" />
        </mxCell>
        <mxCell id="9y2d5Tocywy3vzXFuplA-405" value="u" style="text;html=1;align=center;verticalAlign=middle;resizable=0;points=[];autosize=1;strokeColor=none;fillColor=none;" vertex="1" parent="1">
          <mxGeometry x="1215" y="1658" width="30" height="30" as="geometry" />
        </mxCell>
        <mxCell id="9y2d5Tocywy3vzXFuplA-406" value="n" style="text;html=1;align=center;verticalAlign=middle;resizable=0;points=[];autosize=1;strokeColor=none;fillColor=none;" vertex="1" parent="1">
          <mxGeometry x="1770" y="1368" width="30" height="30" as="geometry" />
        </mxCell>
        <mxCell id="9y2d5Tocywy3vzXFuplA-407" value="a" style="text;html=1;align=center;verticalAlign=middle;resizable=0;points=[];autosize=1;strokeColor=none;fillColor=none;" vertex="1" parent="1">
          <mxGeometry x="1815" y="1418" width="30" height="30" as="geometry" />
        </mxCell>
      </root>
    </mxGraphModel>
  </diagram>
</mxfile>
